<svg width="20" height="20" viewBox="0 0 20 20" fill="none" xmlns="http://www.w3.org/2000/svg">
<path d="M16.666 13.667C16.9422 13.667 17.166 13.8909 17.166 14.167V15.834C17.1658 16.4083 16.9384 16.9601 16.5322 17.3662C16.126 17.7722 15.5743 17.9999 15 18H5C4.42567 17.9999 3.87399 17.7722 3.46777 17.3662C3.06164 16.9601 2.83322 16.4083 2.83301 15.834V14.167C2.83301 13.891 3.05702 13.6672 3.33301 13.667C3.60915 13.667 3.83301 13.8909 3.83301 14.167V15.834C3.83322 16.143 3.95631 16.4396 4.1748 16.6582C4.39351 16.8769 4.69074 16.9999 5 17H15C15.3091 16.9999 15.6055 16.8767 15.8242 16.6582C16.0428 16.4396 16.1658 16.1431 16.166 15.834V14.167C16.166 13.8911 16.3902 13.6673 16.666 13.667Z" fill="#19191D"/>
<path d="M10 2.83301C10.2761 2.83301 10.5 3.05784 10.5 3.33398V12.124L13.8125 8.8125C14.0076 8.61748 14.3242 8.61781 14.5195 8.8125C14.7148 9.00774 14.7147 9.32426 14.5195 9.51953L10.3535 13.6875C10.2899 13.751 10.2128 13.7914 10.1318 13.8135C10.1204 13.8166 10.1094 13.8209 10.0977 13.8232C10.0335 13.8359 9.96751 13.8359 9.90332 13.8232C9.88718 13.8201 9.87198 13.8142 9.85645 13.8096C9.84049 13.8048 9.8241 13.8013 9.80859 13.7949C9.78009 13.7831 9.75309 13.7686 9.72754 13.752L9.72363 13.75C9.69384 13.7302 9.66644 13.7072 9.6416 13.6816L5.47949 9.51953C5.28462 9.32424 5.28436 9.00763 5.47949 8.8125C5.67463 8.61743 5.99125 8.61765 6.18652 8.8125L9.5 12.126V3.33398C9.5 3.05784 9.72386 2.83301 10 2.83301Z" fill="#19191D"/>
</svg>
