<svg width="20" height="20" viewBox="0 0 20 20" fill="none" xmlns="http://www.w3.org/2000/svg">
<path d="M11.667 2L11.7676 2.00977C11.8653 2.02976 11.9526 2.07855 12.0205 2.14648L16.1875 6.31348C16.281 6.4072 16.334 6.5346 16.334 6.66699V15.833C16.334 16.4075 16.1054 16.9589 15.6992 17.3652C15.2929 17.7715 14.7415 17.9999 14.167 18H5.83398C5.25941 18 4.70807 17.7715 4.30176 17.3652C3.89543 16.9589 3.66699 16.4076 3.66699 15.833V4.16699C3.66699 3.59236 3.89543 3.04109 4.30176 2.63477C4.70808 2.22851 5.25941 2 5.83398 2H11.667ZM5.83398 3C5.52462 3 5.22757 3.12308 5.00879 3.3418C4.79 3.56059 4.66699 3.85757 4.66699 4.16699V15.833C4.66699 16.1424 4.79 16.4394 5.00879 16.6582C5.22757 16.8769 5.52462 17 5.83398 17H14.167C14.4763 16.9999 14.7735 16.8769 14.9922 16.6582C15.2108 16.4394 15.334 16.1423 15.334 15.833V7.16699H12.5C12.1466 7.16691 11.8076 7.02616 11.5576 6.77637C11.3076 6.52632 11.167 6.18663 11.167 5.83301V3H5.83398ZM12.167 5.83301C12.167 5.92141 12.2021 6.00682 12.2646 6.06934C12.3271 6.13159 12.4118 6.16691 12.5 6.16699H14.627L12.167 3.70703V5.83301Z" fill="#9696A0"/>
</svg>
