<svg width="32" height="32" viewBox="0 0 32 32" fill="none" xmlns="http://www.w3.org/2000/svg">
<rect x="0.5" y="0.5" width="31" height="31" rx="15.5" fill="#F8F9FA"/>
<rect x="0.5" y="0.5" width="31" height="31" rx="15.5" stroke="#E1E1E5"/>
<g clip-path="url(#clip0_13_2524)">
<path d="M20.1667 20.1667H21.8333C22.2754 20.1667 22.6993 19.9911 23.0118 19.6785C23.3244 19.366 23.5 18.942 23.5 18.5V15.1667C23.5 14.7246 23.3244 14.3007 23.0118 13.9882C22.6993 13.6756 22.2754 13.5 21.8333 13.5H10.1667C9.72464 13.5 9.30072 13.6756 8.98816 13.9882C8.67559 14.3007 8.5 14.7246 8.5 15.1667V18.5C8.5 18.942 8.67559 19.366 8.98816 19.6785C9.30072 19.9911 9.72464 20.1667 10.1667 20.1667H11.8333" stroke="#19191D" stroke-width="1.25" stroke-linecap="round" stroke-linejoin="round"/>
<path d="M20.1667 13.5V10.1667C20.1667 9.72464 19.9911 9.30072 19.6786 8.98816C19.366 8.67559 18.9421 8.5 18.5 8.5H13.5C13.058 8.5 12.6341 8.67559 12.3215 8.98816C12.009 9.30072 11.8334 9.72464 11.8334 10.1667V13.5" stroke="#19191D" stroke-width="1.25" stroke-linecap="round" stroke-linejoin="round"/>
<path d="M11.8334 18.5002C11.8334 18.0581 12.009 17.6342 12.3215 17.3217C12.6341 17.0091 13.058 16.8335 13.5 16.8335H18.5C18.9421 16.8335 19.366 17.0091 19.6786 17.3217C19.9911 17.6342 20.1667 18.0581 20.1667 18.5002V21.8335C20.1667 22.2755 19.9911 22.6994 19.6786 23.012C19.366 23.3246 18.9421 23.5002 18.5 23.5002H13.5C13.058 23.5002 12.6341 23.3246 12.3215 23.012C12.009 22.6994 11.8334 22.2755 11.8334 21.8335V18.5002Z" stroke="#19191D" stroke-width="1.25" stroke-linecap="round" stroke-linejoin="round"/>
</g>
<defs>
<clipPath id="clip0_13_2524">
<rect width="20" height="20" fill="white" transform="translate(6 6)"/>
</clipPath>
</defs>
</svg>
