<svg width="20" height="20" viewBox="0 0 20 20" fill="none" xmlns="http://www.w3.org/2000/svg">
<path fill-rule="evenodd" clip-rule="evenodd" d="M10.0002 2C10.7958 2.00002 11.5587 2.31631 12.1212 2.87891C12.6838 3.44151 13.0002 4.20437 13.0002 5V6.16699H14.7248C15.0369 6.16699 15.3454 6.23497 15.6291 6.36523C15.9129 6.49567 16.1659 6.68578 16.3693 6.92285C16.5726 7.15983 16.722 7.43807 16.8078 7.73828C16.8935 8.0386 16.9138 8.35439 16.8664 8.66309L15.8205 15.4561C15.7115 16.1642 15.3526 16.8108 14.8087 17.2773C14.2648 17.7437 13.5711 18.0002 12.8546 18H7.14468C6.4284 17.9999 5.73524 17.7437 5.19156 17.2773C4.64784 16.8108 4.28881 16.1642 4.17984 15.4561L3.13394 8.66309C3.08648 8.35448 3.10585 8.03852 3.19156 7.73828C3.27732 7.43813 3.4278 7.15981 3.63101 6.92285C3.83424 6.68601 4.08676 6.49567 4.37027 6.36523C4.65398 6.23486 4.96331 6.16703 5.27554 6.16699H7.00015V5C7.00015 4.20435 7.31645 3.44152 7.87906 2.87891C8.44167 2.31632 9.20452 2 10.0002 2ZM5.27554 7.16699C5.10757 7.16704 4.94089 7.20332 4.78824 7.27344C4.63561 7.34367 4.49921 7.44671 4.3898 7.57422C4.28064 7.70162 4.19963 7.85139 4.15347 8.0127C4.1074 8.17423 4.09672 8.34471 4.12222 8.51074L5.16812 15.3047C5.24085 15.7765 5.47964 16.2076 5.84195 16.5186C6.20439 16.8295 6.66712 16.9999 7.14468 17H12.8546L13.0334 16.9922C13.4465 16.9553 13.8402 16.7904 14.1574 16.5186C14.5199 16.2076 14.7594 15.7767 14.8322 15.3047L15.8781 8.51074C15.9036 8.34464 15.893 8.17429 15.8468 8.0127C15.8006 7.85123 15.7198 7.70171 15.6105 7.57422C15.501 7.44659 15.3649 7.34367 15.2121 7.27344C15.0593 7.20329 14.8928 7.16699 14.7248 7.16699H13.0002V9.16699C13 9.44296 12.7762 9.66695 12.5002 9.66699C12.2241 9.66699 12.0003 9.44298 12.0002 9.16699V7.16699H8.00015V9.16699C7.99998 9.44296 7.77615 9.66695 7.50015 9.66699C7.22412 9.66699 7.00033 9.44298 7.00015 9.16699V7.16699H5.27554ZM10.0002 3C9.46974 3 8.96116 3.21089 8.58609 3.58594C8.21102 3.96101 8.00015 4.46957 8.00015 5V6.16699H12.0002V5C12.0002 4.46958 11.7893 3.96101 11.4142 3.58594C11.0392 3.21088 10.5306 3.00002 10.0002 3Z" fill="#2979FF"/>
</svg>
