<svg width="16" height="16" viewBox="0 0 16 16" fill="none" xmlns="http://www.w3.org/2000/svg">
<path d="M8 2.93286C8.22091 2.93286 8.4 3.11273 8.4 3.33364V7.60005H12.6672C12.8878 7.60035 13.0672 7.77932 13.0672 8.00005C13.0672 8.22078 12.8878 8.39975 12.6672 8.40005H8.4V12.6672C8.39965 12.8879 8.2207 13.0672 8 13.0672C7.7793 13.0672 7.60035 12.8879 7.6 12.6672V8.40005H3.33359C3.11268 8.40005 2.93359 8.22096 2.93359 8.00005C2.93359 7.77913 3.11268 7.60005 3.33359 7.60005H7.6V3.33364C7.6 3.11273 7.77909 2.93286 8 2.93286Z" fill="white"/>
</svg>
