<svg width="32" height="32" viewBox="0 0 32 32" fill="none" xmlns="http://www.w3.org/2000/svg">
<rect width="32" height="32" rx="16" fill="white"/>
<path d="M17.3075 15.9999L23.2775 10.0299C23.5675 9.73994 23.5675 9.25994 23.2775 8.96994C22.9875 8.67994 22.5075 8.67994 22.2175 8.96994L16.2475 14.9399L10.2775 8.96994C9.9875 8.67994 9.5075 8.67994 9.2175 8.96994C8.9275 9.25994 8.9275 9.73994 9.2175 10.0299L15.1875 15.9999L9.2175 21.9699C8.9275 22.2599 8.9275 22.7399 9.2175 23.0299C9.3675 23.1799 9.5575 23.2499 9.7475 23.2499C9.9375 23.2499 10.1275 23.1799 10.2775 23.0299L16.2475 17.0599L22.2175 23.0299C22.3675 23.1799 22.5575 23.2499 22.7475 23.2499C22.9375 23.2499 23.1275 23.1799 23.2775 23.0299C23.5675 22.7399 23.5675 22.2599 23.2775 21.9699L17.3075 15.9999Z" fill="#19191D"/>
</svg>
