<svg width="20" height="20" viewBox="0 0 20 20" fill="none" xmlns="http://www.w3.org/2000/svg">
<path d="M10 3.66602C10.2761 3.66602 10.5 3.89085 10.5 4.16699V9.5H15.834C16.1098 9.50037 16.334 9.72409 16.334 10C16.334 10.2759 16.1098 10.4996 15.834 10.5H10.5V15.834C10.4996 16.1098 10.2759 16.334 10 16.334C9.72413 16.334 9.50044 16.1098 9.5 15.834V10.5H4.16699C3.89085 10.5 3.66699 10.2761 3.66699 10C3.66699 9.72386 3.89085 9.5 4.16699 9.5H9.5V4.16699C9.5 3.89085 9.72386 3.66602 10 3.66602Z" fill="#19191D"/>
</svg>
