<svg width="18" height="18" viewBox="0 0 18 18" fill="none" xmlns="http://www.w3.org/2000/svg">
<path d="M9 13.0501C9.31815 13.0502 9.62405 13.1767 9.84902 13.4017C10.0738 13.6266 10.2005 13.9318 10.2006 14.2498C10.2006 14.568 10.074 14.8738 9.84902 15.0988C9.62405 15.3238 9.31815 15.4503 9 15.4504C8.68199 15.4503 8.3768 15.3236 8.15186 15.0988C7.92681 14.8738 7.80029 14.5681 7.80029 14.2498C7.80037 13.9317 7.92688 13.6266 8.15186 13.4017C8.37682 13.1768 8.68192 13.0502 9 13.0501Z" fill="#9696A0"/>
<path d="M9 7.80039C9.31815 7.80047 9.62405 7.92698 9.84902 8.15195C10.0737 8.37688 10.2005 8.68219 10.2006 9.0001C10.2005 9.3182 10.074 9.62418 9.84902 9.84912C9.62406 10.0741 9.31812 10.2006 9 10.2007C8.68209 10.2006 8.37678 10.0738 8.15186 9.84912C7.92692 9.62418 7.80041 9.3182 7.80029 9.0001C7.80037 8.68198 7.92693 8.37692 8.15186 8.15195C8.37683 7.92698 8.68185 7.80047 9 7.80039Z" fill="#9696A0"/>
<path d="M9 2.5498C9.31815 2.54988 9.62405 2.67727 9.84902 2.90225C10.0737 3.12717 10.2005 3.43248 10.2006 3.75039C10.2005 4.06849 10.074 4.37447 9.84902 4.59941C9.62406 4.82434 9.31812 4.9509 9 4.95098C8.68209 4.9509 8.37678 4.82407 8.15186 4.59941C7.92692 4.37447 7.80041 4.06849 7.80029 3.75039C7.80037 3.43227 7.92693 3.12721 8.15186 2.90225C8.37683 2.67727 8.68185 2.54988 9 2.5498Z" fill="#9696A0"/>
</svg>
