<svg width="20" height="20" viewBox="0 0 20 20" fill="none" xmlns="http://www.w3.org/2000/svg">
<path d="M6.2168 2.95265C7.94524 2.02398 9.95492 1.7631 11.8633 2.21926C13.7717 2.67553 15.4458 3.81724 16.5674 5.42726C17.6889 7.03738 18.1798 9.00343 17.9463 10.9517C17.7127 12.8999 16.7711 14.6943 15.3008 15.9937C13.8304 17.293 11.9339 18.0073 9.97168 17.9995C8.00949 17.9917 6.11819 17.2627 4.6582 15.9517C3.19846 14.6407 2.27091 12.839 2.05273 10.8892C2.02212 10.6149 2.2199 10.3673 2.49414 10.3364C2.76853 10.3057 3.01612 10.5035 3.04688 10.7779C3.23775 12.4839 4.04897 14.0605 5.32617 15.2075C6.60365 16.3546 8.25868 16.9927 9.97559 16.9995C11.6925 17.0063 13.3521 16.3816 14.6387 15.2446C15.9252 14.1077 16.7487 12.5373 16.9531 10.8325C17.1574 9.12785 16.7284 7.40738 15.7471 5.99855C14.7657 4.58983 13.3006 3.59114 11.6309 3.19191C9.96104 2.79276 8.20283 3.02093 6.69043 3.83351C5.36904 4.54352 4.31545 5.65614 3.67773 7.00148H6.66699C6.94298 7.00166 7.16699 7.22545 7.16699 7.50148C7.16657 7.77716 6.94273 8.00131 6.66699 8.00148H2.5C2.22412 8.00148 2.00042 7.77727 2 7.50148V3.33449C2 3.05835 2.22386 2.83449 2.5 2.83449C2.77614 2.83449 3 3.05835 3 3.33449V6.13722C3.73985 4.79593 4.85235 3.68585 6.2168 2.95265Z" fill="#19191D"/>
</svg>
