<svg width="20" height="20" viewBox="0 0 20 20" fill="none" xmlns="http://www.w3.org/2000/svg">
<path d="M12.5 13.667C12.776 13.6672 13 13.891 13 14.167C12.9998 14.4429 12.7759 14.6668 12.5 14.667H10.833C10.5572 14.6668 10.3332 14.4428 10.333 14.167C10.333 13.891 10.557 13.6672 10.833 13.667H12.5Z" fill="#2979FF"/>
<path d="M12.5 10.333C12.776 10.333 12.9998 10.557 13 10.833C13 11.1092 12.7761 11.333 12.5 11.333H7.5C7.22386 11.333 7 11.1092 7 10.833C7.0002 10.557 7.22398 10.333 7.5 10.333H12.5Z" fill="#2979FF"/>
<path d="M8.33301 5.33301C8.60903 5.33301 8.83281 5.55703 8.83301 5.83301C8.83301 6.10915 8.60915 6.33301 8.33301 6.33301H7.5C7.22386 6.33301 7 6.10915 7 5.83301C7.0002 5.55703 7.22398 5.33301 7.5 5.33301H8.33301Z" fill="#2979FF"/>
<path fill-rule="evenodd" clip-rule="evenodd" d="M11.7676 2.00977C11.8653 2.02978 11.9526 2.07855 12.0205 2.14648L16.1875 6.31348C16.2106 6.33658 16.2308 6.36242 16.249 6.38965C16.3035 6.47126 16.334 6.56757 16.334 6.66699V15.833C16.334 16.4075 16.1053 16.9589 15.6992 17.3652C15.293 17.7715 14.7415 17.9999 14.167 18H5.83398C5.25943 18 4.70807 17.7714 4.30176 17.3652C3.89543 16.9589 3.66699 16.4076 3.66699 15.833V4.16699C3.66699 3.59236 3.89543 3.04109 4.30176 2.63477C4.70807 2.22855 5.25943 2 5.83398 2H11.667L11.7676 2.00977ZM5.83398 3C5.52465 3 5.22756 3.12312 5.00879 3.3418C4.79 3.56059 4.66699 3.85757 4.66699 4.16699V15.833C4.66699 16.1424 4.79 16.4394 5.00879 16.6582C5.22756 16.8769 5.52465 17 5.83398 17H14.167C14.4763 16.9999 14.7735 16.8769 14.9922 16.6582C15.2108 16.4394 15.334 16.1423 15.334 15.833V7.16699H12.5C12.1467 7.16691 11.8076 7.02612 11.5576 6.77637C11.3076 6.52632 11.167 6.18663 11.167 5.83301V3H5.83398ZM12.167 5.83301C12.167 5.92141 12.2021 6.00682 12.2646 6.06934C12.3271 6.13156 12.4119 6.16691 12.5 6.16699H14.627L12.167 3.70703V5.83301Z" fill="#2979FF"/>
</svg>
