<svg width="21" height="20" viewBox="0 0 21 20" fill="none" xmlns="http://www.w3.org/2000/svg">
<path d="M6.44727 13.6768C6.67518 13.7233 6.84668 13.9253 6.84668 14.167C6.84645 14.4085 6.67512 14.6108 6.44727 14.6572L6.34668 14.667H6.3418C6.06582 14.667 5.84206 14.4429 5.8418 14.167C5.8418 13.8909 6.06565 13.667 6.3418 13.667H6.34668L6.44727 13.6768Z" fill="#9696A0"/>
<path d="M8.84668 13.667C9.12277 13.6671 9.34668 13.8909 9.34668 14.167C9.34642 14.4429 9.1226 14.6669 8.84668 14.667H8.8418C8.56582 14.667 8.34206 14.4429 8.3418 14.167C8.3418 13.8909 8.56565 13.667 8.8418 13.667H8.84668Z" fill="#9696A0"/>
<path d="M11.3506 13.667C11.6267 13.667 11.8506 13.8909 11.8506 14.167C11.8503 14.4429 11.6266 14.667 11.3506 14.667H11.3457C11.0698 14.6669 10.846 14.4429 10.8457 14.167C10.8457 13.8909 11.0696 13.6671 11.3457 13.667H11.3506Z" fill="#9696A0"/>
<path d="M6.34375 11.167C6.61989 11.167 6.84375 11.3909 6.84375 11.667C6.84349 11.9429 6.61973 12.167 6.34375 12.167H6.33301C6.05717 12.1668 5.83327 11.9428 5.83301 11.667C5.83301 11.391 6.05701 11.1672 6.33301 11.167H6.34375Z" fill="#9696A0"/>
<path d="M8.84668 11.167C9.12277 11.1671 9.34668 11.3909 9.34668 11.667C9.34642 11.9429 9.1226 12.1669 8.84668 12.167H8.8418C8.56582 12.167 8.34206 11.9429 8.3418 11.667C8.3418 11.3909 8.56565 11.167 8.8418 11.167H8.84668Z" fill="#9696A0"/>
<path d="M11.3467 11.167C11.6228 11.1671 11.8467 11.3909 11.8467 11.667C11.8464 11.9429 11.6226 12.1669 11.3467 12.167H11.3418C11.0658 12.167 10.8421 11.9429 10.8418 11.667C10.8418 11.3909 11.0657 11.167 11.3418 11.167H11.3467Z" fill="#9696A0"/>
<path d="M13.8506 11.167C14.1267 11.167 14.3506 11.3909 14.3506 11.667C14.3503 11.9429 14.1266 12.167 13.8506 12.167H13.8457C13.5698 12.1669 13.346 11.9429 13.3457 11.667C13.3457 11.3909 13.5696 11.1671 13.8457 11.167H13.8506Z" fill="#9696A0"/>
<path fill-rule="evenodd" clip-rule="evenodd" d="M13.833 2C14.1091 2 14.333 2.22386 14.333 2.5V3.66699H15.5C16.0745 3.66708 16.626 3.89551 17.0322 4.30176C17.4383 4.70805 17.666 5.25955 17.666 5.83398V15.834C17.6658 16.4083 17.4384 16.9601 17.0322 17.3662C16.626 17.7722 16.0743 17.9999 15.5 18H5.5C4.92567 17.9999 4.37399 17.7722 3.96777 17.3662C3.56164 16.9601 3.33322 16.4083 3.33301 15.834V5.83398C3.33301 5.25954 3.56169 4.70805 3.96777 4.30176C4.37403 3.8955 4.92547 3.66707 5.5 3.66699H6.66699V2.5C6.66699 2.22386 6.89085 2 7.16699 2C7.44299 2.00016 7.66699 2.22396 7.66699 2.5V3.66699H13.333V2.5C13.333 2.22396 13.557 2.00016 13.833 2ZM4.33301 15.834C4.33322 16.143 4.45631 16.4396 4.6748 16.6582C4.89352 16.8769 5.19073 16.9999 5.5 17H15.5C15.8091 16.9999 16.1055 16.8767 16.3242 16.6582C16.5428 16.4396 16.6658 16.1431 16.666 15.834V9.66699H4.33301V15.834ZM5.5 4.66699C5.19069 4.66707 4.89353 4.79007 4.6748 5.00879C4.45626 5.22754 4.33301 5.52475 4.33301 5.83398V8.66699H16.666V5.83398C16.666 5.52461 16.543 5.22757 16.3242 5.00879C16.1055 4.79017 15.8092 4.66708 15.5 4.66699H14.333V5.83301C14.333 6.10915 14.1091 6.33301 13.833 6.33301C13.557 6.33284 13.333 6.10905 13.333 5.83301V4.66699H7.66699V5.83301C7.66699 6.10905 7.44299 6.33284 7.16699 6.33301C6.89085 6.33301 6.66699 6.10915 6.66699 5.83301V4.66699H5.5Z" fill="#9696A0"/>
</svg>
