<svg width="20" height="20" viewBox="0 0 20 20" fill="none" xmlns="http://www.w3.org/2000/svg">
<path d="M8.33301 8.66699C8.60915 8.66699 8.83301 8.89085 8.83301 9.16699V14.167C8.83274 14.4429 8.60899 14.667 8.33301 14.667C8.05714 14.6669 7.83327 14.4428 7.83301 14.167V9.16699C7.83301 8.89093 8.05698 8.66712 8.33301 8.66699Z" fill="#19191D"/>
<path d="M11.667 8.66699C11.943 8.66712 12.167 8.89093 12.167 9.16699V14.167C12.1667 14.4428 11.9429 14.6669 11.667 14.667C11.391 14.667 11.1673 14.4429 11.167 14.167V9.16699C11.167 8.89085 11.3908 8.66699 11.667 8.66699Z" fill="#19191D"/>
<path fill-rule="evenodd" clip-rule="evenodd" d="M11.667 2C12.0205 2.00009 12.3594 2.14065 12.6094 2.39062C12.8593 2.6406 12.9999 2.9795 13 3.33301V5.33398H16.666C16.9422 5.33398 17.166 5.55784 17.166 5.83398C17.1658 6.1099 16.942 6.33398 16.666 6.33398H16.2939L15.499 15.875L15.4971 15.874C15.4865 16.4335 15.2625 16.9686 14.8662 17.3652C14.4601 17.7714 13.9083 17.9998 13.334 18H6.66699C6.09239 18 5.54109 17.7715 5.13477 17.3652C4.73835 16.9688 4.51279 16.4344 4.50195 15.875L3.70703 6.33398H3.33301C3.05714 6.33385 2.83327 6.10982 2.83301 5.83398C2.83301 5.55792 3.05698 5.33412 3.33301 5.33398H7V3.33301C7.00009 2.9795 7.14065 2.6406 7.39062 2.39062C7.6406 2.14065 7.9795 2.00009 8.33301 2H11.667ZM5.49902 15.791C5.50017 15.8047 5.5 15.8192 5.5 15.833C5.5 16.1424 5.623 16.4394 5.8418 16.6582C6.06058 16.8769 6.35761 17 6.66699 17H13.334C13.643 16.9998 13.9396 16.8766 14.1582 16.6582C14.3768 16.4394 14.5 16.1423 14.5 15.833C14.5 15.8192 14.5008 15.8047 14.502 15.791L15.29 6.33398H4.70996L5.49902 15.791ZM8.33301 3C8.24472 3.00009 8.16009 3.03522 8.09766 3.09766C8.03522 3.16009 8.00009 3.24472 8 3.33301V5.33398H12V3.33301C11.9999 3.24472 11.9648 3.16009 11.9023 3.09766C11.8399 3.03522 11.7553 3.00009 11.667 3H8.33301Z" fill="#19191D"/>
</svg>
