<svg width="17" height="16" viewBox="0 0 17 16" fill="none" xmlns="http://www.w3.org/2000/svg">
<path d="M8.50016 1.33301C12.1822 1.33301 15.1668 4.31767 15.1668 7.99967C15.1682 9.74999 14.4812 11.4306 13.2541 12.6788C12.027 13.9269 10.3583 14.6424 8.60818 14.6707C6.85809 14.6991 5.16706 14.0381 3.90016 12.8303C2.63327 11.6226 1.89216 9.96512 1.83683 8.21567L1.8335 7.99967L1.83616 7.81301C1.93483 4.21767 4.88016 1.33301 8.50016 1.33301ZM8.50016 9.99967C8.33687 9.9997 8.17927 10.0596 8.05725 10.1682C7.93522 10.2767 7.85727 10.4262 7.83816 10.5883L7.8335 10.6663L7.83816 10.751C7.85744 10.913 7.93547 11.0624 8.05747 11.1707C8.17948 11.2791 8.33699 11.3389 8.50016 11.3389C8.66334 11.3389 8.82085 11.2791 8.94285 11.1707C9.06486 11.0624 9.14289 10.913 9.16216 10.751L9.16683 10.673L9.16216 10.5883C9.14306 10.4262 9.0651 10.2767 8.94308 10.1682C8.82105 10.0596 8.66345 9.9997 8.50016 9.99967ZM9.41216 5.55101C9.01309 5.34699 8.55675 5.28391 8.11729 5.37201C7.67783 5.46012 7.28108 5.69425 6.9915 6.03634C6.88108 6.16568 6.82427 6.33232 6.83268 6.50216C6.84109 6.67201 6.91409 6.83222 7.03674 6.95002C7.15939 7.06781 7.32242 7.13428 7.49247 7.13583C7.66251 7.13738 7.82672 7.07388 7.9515 6.95834L8.0655 6.83834C8.16385 6.74806 8.2875 6.69008 8.4198 6.6722C8.5521 6.65432 8.68671 6.67741 8.8055 6.73834C8.93355 6.80315 9.03728 6.90755 9.10124 7.03603C9.16521 7.16451 9.18601 7.3102 9.16055 7.45145C9.13509 7.59269 9.06472 7.72195 8.95991 7.82C8.85511 7.91805 8.72146 7.97966 8.57883 7.99568L8.42416 8.00367C8.2546 8.02233 8.09864 8.10528 7.98838 8.23544C7.87813 8.3656 7.82196 8.53308 7.83144 8.7034C7.84092 8.87372 7.91533 9.03392 8.03935 9.15104C8.16338 9.26816 8.32758 9.33329 8.49816 9.33301C8.94791 9.33436 9.38499 9.18408 9.73882 8.90644C10.0926 8.6288 10.3426 8.24 10.4482 7.80283C10.5539 7.36567 10.5091 6.90565 10.3211 6.49707C10.1331 6.08849 9.81289 5.75519 9.41216 5.55101Z" fill="#9696A0"/>
</svg>
