<svg width="20" height="20" viewBox="0 0 20 20" fill="none" xmlns="http://www.w3.org/2000/svg">
<path d="M16.3335 4.16699C16.3335 3.85765 16.2104 3.56057 15.9917 3.3418C15.7729 3.123 15.4759 3 15.1665 3H6.8335C6.52408 3 6.22709 3.123 6.0083 3.3418C5.78951 3.56059 5.6665 3.85757 5.6665 4.16699V16.5654L7.38916 15.417L7.46631 15.375C7.65193 15.2938 7.87257 15.3322 8.02002 15.4795L9.33252 16.792L10.646 15.4795C10.7397 15.3858 10.867 15.3331 10.9995 15.333C11.132 15.333 11.2593 15.3859 11.353 15.4795L12.6665 16.793L13.98 15.4795L14.0474 15.4229C14.2135 15.3071 14.4375 15.3014 14.6108 15.417L16.3335 16.5654V4.16699ZM13.4995 12C13.7757 12 13.9995 12.2239 13.9995 12.5C13.9995 12.7761 13.7757 13 13.4995 13H11.8335C11.5574 13 11.3335 12.7761 11.3335 12.5C11.3335 12.2239 11.5574 12 11.8335 12H13.4995ZM13.4995 8.66699C13.7757 8.66699 13.9995 8.89085 13.9995 9.16699C13.9993 9.44298 13.7755 9.66699 13.4995 9.66699H8.49951C8.22363 9.66682 7.99969 9.44288 7.99951 9.16699C7.99951 8.89096 8.22352 8.66717 8.49951 8.66699H13.4995ZM13.4995 5.33301C13.7755 5.33301 13.9993 5.55702 13.9995 5.83301C13.9995 6.10915 13.7757 6.33301 13.4995 6.33301H8.49951C8.22352 6.33283 7.99951 6.10904 7.99951 5.83301C7.99969 5.55712 8.22363 5.33318 8.49951 5.33301H13.4995ZM17.3335 17.5C17.3335 17.6844 17.2314 17.8534 17.0688 17.9404C16.9064 18.0274 16.7095 18.0182 16.5562 17.916L14.397 16.4756L13.02 17.8535C12.9263 17.9473 12.7991 18 12.6665 18C12.5339 18 12.4068 17.9473 12.313 17.8535L10.9995 16.54L9.68701 17.8535C9.59332 17.9472 9.46599 17.9999 9.3335 18C9.20096 18 9.07373 17.9472 8.97998 17.8535L7.60205 16.4756L5.44385 17.916C5.29042 18.0183 5.09275 18.0274 4.93018 17.9404C4.76788 17.8533 4.6665 17.6842 4.6665 17.5V4.16699C4.6665 3.59236 4.89494 3.04109 5.30127 2.63477C5.7076 2.22844 6.25886 2 6.8335 2H15.1665C15.7411 2 16.2924 2.22844 16.6987 2.63477C17.105 3.04108 17.3335 3.59243 17.3335 4.16699V17.5Z" fill="#2979FF"/>
</svg>
