<svg width="20" height="20" viewBox="0 0 20 20" fill="none" xmlns="http://www.w3.org/2000/svg">
<path fill-rule="evenodd" clip-rule="evenodd" d="M11.667 9.5C12.2415 9.50009 12.793 9.72851 13.1992 10.1348C13.6053 10.5411 13.833 11.0925 13.833 11.667C13.8329 12.2415 13.6055 12.793 13.1992 13.1992C12.793 13.6055 12.2415 13.8329 11.667 13.833C11.0925 13.833 10.5411 13.6053 10.1348 13.1992C9.72851 12.793 9.50009 12.2415 9.5 11.667C9.5 11.0924 9.72844 10.5411 10.1348 10.1348C10.5411 9.72844 11.0924 9.5 11.667 9.5ZM11.667 10.5C11.3576 10.5 11.0606 10.623 10.8418 10.8418C10.623 11.0606 10.5 11.3576 10.5 11.667C10.5001 11.9762 10.6232 12.2725 10.8418 12.4912C11.0606 12.71 11.3576 12.833 11.667 12.833C11.9763 12.8329 12.2725 12.7099 12.4912 12.4912C12.7099 12.2725 12.8329 11.9763 12.833 11.667C12.833 11.3576 12.71 11.0606 12.4912 10.8418C12.2725 10.6232 11.9762 10.5001 11.667 10.5Z" fill="#2979FF"/>
<path fill-rule="evenodd" clip-rule="evenodd" d="M13.333 3.66699C13.6866 3.66699 14.0263 3.80757 14.2764 4.05762C14.5261 4.30756 14.6669 4.64666 14.667 5V7H16.666C17.0196 7 17.3593 7.14069 17.6094 7.39062C17.8592 7.64058 17.9999 7.97958 18 8.33301V15C18 15.3535 17.8592 15.6924 17.6094 15.9424C17.3593 16.1923 17.0195 16.333 16.666 16.333H6.66602C6.31264 16.3328 5.97352 16.1923 5.72363 15.9424C5.4738 15.6924 5.33301 15.3535 5.33301 15V13H3.33301C2.97959 12.9999 2.64058 12.8592 2.39062 12.6094C2.14076 12.3594 2.0001 12.0204 2 11.667V5C2.00009 4.64658 2.14077 4.30757 2.39062 4.05762C2.6406 3.80765 2.9795 3.66708 3.33301 3.66699H13.333ZM6.66602 8C6.57786 8.00018 6.49301 8.03531 6.43066 8.09766C6.36834 8.16007 6.33309 8.24481 6.33301 8.33301V15C6.33301 15.0882 6.36837 15.1729 6.43066 15.2354C6.49301 15.2977 6.57786 15.3328 6.66602 15.333H16.666C16.7543 15.333 16.8398 15.2977 16.9023 15.2354C16.9647 15.1729 17 15.0883 17 15V8.33301C16.9999 8.2448 16.9647 8.16008 16.9023 8.09766C16.8398 8.03526 16.7543 8 16.666 8H6.66602ZM3.33301 4.66699C3.24472 4.66708 3.16009 4.70221 3.09766 4.76465C3.03534 4.82707 3.00009 4.9118 3 5V11.667C3.0001 11.7552 3.03533 11.8399 3.09766 11.9023C3.16007 11.9647 3.24481 11.9999 3.33301 12H5.33301V8.33301C5.33309 7.97959 5.47378 7.64058 5.72363 7.39062C5.97352 7.14074 6.31264 7.00018 6.66602 7H13.667V5C13.6669 4.91187 13.6316 4.82705 13.5693 4.76465C13.5068 4.70214 13.4214 4.66699 13.333 4.66699H3.33301Z" fill="#2979FF"/>
</svg>
