<svg width="20" height="20" viewBox="0 0 20 20" fill="none" xmlns="http://www.w3.org/2000/svg">
<path d="M10 2C5.58 2 2 5.58 2 10C2 14.42 5.58 18 10 18C14.42 18 18 14.42 18 10C18 5.58 14.42 2 10 2ZM13.53 12.47C13.82 12.76 13.82 13.24 13.53 13.53C13.38 13.68 13.19 13.75 13 13.75C12.81 13.75 12.62 13.68 12.47 13.53L10 11.06L7.53 13.53C7.38 13.68 7.19 13.75 7 13.75C6.81 13.75 6.62 13.68 6.47 13.53C6.18 13.24 6.18 12.76 6.47 12.47L8.94 10L6.47 7.53C6.18 7.24 6.18 6.76 6.47 6.47C6.76 6.18 7.24 6.18 7.53 6.47L10 8.94L12.47 6.47C12.76 6.18 13.24 6.18 13.53 6.47C13.82 6.76 13.82 7.24 13.53 7.53L11.06 10L13.53 12.47V12.47Z" fill="#C4C4CA"/>
</svg>
