<svg width="20" height="20" viewBox="0 0 20 20" fill="none" xmlns="http://www.w3.org/2000/svg">
<path fill-rule="evenodd" clip-rule="evenodd" d="M13.333 2.83301C13.6864 2.83301 14.0254 2.97391 14.2754 3.22363C14.5253 3.47352 14.6658 3.81264 14.666 4.16602V6.16602H15C15.3533 6.1661 15.6925 6.307 15.9424 6.55664C16.1923 6.8066 16.3329 7.14651 16.333 7.5V9.5H16.667C16.943 9.5002 17.167 9.72398 17.167 10V13.333C17.167 13.609 16.943 13.8328 16.667 13.833H16.333V15.833C16.333 16.1866 16.1923 16.5254 15.9424 16.7754C15.6924 17.0254 15.3535 17.1659 15 17.166H5C4.42565 17.1659 3.87398 16.9383 3.46777 16.5322C3.06175 16.126 2.83309 15.5743 2.83301 15V5C2.8331 4.4255 3.06153 3.87402 3.46777 3.46777C3.87402 3.06153 4.4255 2.8331 5 2.83301H13.333ZM3.83301 15C3.83309 15.3091 3.95642 15.6056 4.1748 15.8242C4.39351 16.0429 4.69071 16.1659 5 16.166H15C15.0883 16.1659 15.1729 16.1308 15.2354 16.0684C15.2978 16.0059 15.333 15.9213 15.333 15.833V13.833H13.334C12.7596 13.833 12.208 13.6052 11.8018 13.1992C11.3955 12.793 11.1671 12.2415 11.167 11.667C11.167 11.0924 11.3954 10.5411 11.8018 10.1348C12.2081 9.72855 12.7594 9.5 13.334 9.5H15.333V7.5C15.3329 7.41172 15.2978 7.3261 15.2354 7.26367C15.173 7.20157 15.088 7.1661 15 7.16602H5C4.58306 7.16594 4.17883 7.04448 3.83301 6.82324V15ZM13.334 10.5C13.0247 10.5 12.7276 10.6231 12.5088 10.8418C12.29 11.0606 12.167 11.3576 12.167 11.667C12.1671 11.9762 12.2902 12.2725 12.5088 12.4912C12.7276 12.7099 13.0247 12.833 13.334 12.833H16.167V10.5H13.334ZM5 3.83301C4.69071 3.8331 4.39351 3.9561 4.1748 4.1748C3.9561 4.39351 3.8331 4.69071 3.83301 5C3.83309 5.30905 3.95642 5.60555 4.1748 5.82422C4.39351 6.04292 4.69071 6.16592 5 6.16602H13.666V4.16602C13.6658 4.07786 13.6307 3.99301 13.5684 3.93066C13.5059 3.86848 13.4212 3.83301 13.333 3.83301H5Z" fill="#2979FF"/>
</svg>
