<svg width="20" height="20" viewBox="0 0 20 20" fill="none" xmlns="http://www.w3.org/2000/svg">
<path d="M10 3.33331C13.575 3.33331 16.5525 5.35748 18.8875 9.29498L19.0708 9.61081L19.1083 9.69415L19.1333 9.76331L19.145 9.80915L19.1567 9.87748L19.1658 9.96081V10.0525L19.1542 10.145C19.1487 10.1759 19.1415 10.2065 19.1325 10.2366L19.1 10.3266L19.07 10.3891L19.0567 10.4141C16.7533 14.4441 13.8067 16.5641 10.2608 16.6633L10 16.6666C6.33668 16.6666 3.30252 14.5425 0.943349 10.4133C0.871441 10.2874 0.833618 10.145 0.833618 9.99998C0.833618 9.855 0.871441 9.71253 0.943349 9.58665C3.30252 5.45748 6.33668 3.33331 10 3.33331ZM10 7.49998C9.33697 7.49998 8.70109 7.76337 8.23225 8.23221C7.76341 8.70105 7.50002 9.33694 7.50002 9.99998C7.50002 10.663 7.76341 11.2989 8.23225 11.7677C8.70109 12.2366 9.33697 12.5 10 12.5C10.6631 12.5 11.2989 12.2366 11.7678 11.7677C12.2366 11.2989 12.5 10.663 12.5 9.99998C12.5 9.33694 12.2366 8.70105 11.7678 8.23221C11.2989 7.76337 10.6631 7.49998 10 7.49998Z" fill="#19191D"/>
</svg>
