<svg width="20" height="20" viewBox="0 0 20 20" fill="none" xmlns="http://www.w3.org/2000/svg">
<path d="M7.50098 9.97559C7.5009 9.98362 7.5 9.99197 7.5 10C7.50009 10.6629 7.76366 11.2988 8.23242 11.7676C8.70124 12.2363 9.33706 12.5 10 12.5C10.0078 12.5 10.0156 12.4981 10.0234 12.4981L13.4756 15.9502C12.4659 16.3914 11.3943 16.6314 10.2607 16.6631L10 16.666C6.3367 16.666 3.30252 14.5422 0.943359 10.4131C0.871504 10.2873 0.833064 10.1449 0.833008 10C0.833008 9.85503 0.871451 9.71183 0.943359 9.58594C1.74798 8.1777 2.63098 7.0025 3.59082 6.06543L7.50098 9.97559Z" fill="#19191D"/>
<path d="M15.6621 14.6016C15.258 14.9317 14.84 15.2202 14.4111 15.4717L11.1543 12.2148C11.3781 12.0982 11.5859 11.9493 11.7676 11.7676C11.9493 11.5859 12.0982 11.378 12.2148 11.1543L15.6621 14.6016Z" fill="#19191D"/>
<path d="M10 3.33301C13.575 3.33305 16.5527 5.35747 18.8877 9.29493L19.0703 9.61036L19.1084 9.69336L19.1328 9.7627L19.1445 9.8086L19.1562 9.87696L19.166 9.96094V10.0518L19.1543 10.1445C19.1488 10.1754 19.1418 10.2063 19.1328 10.2363L19.0996 10.3262L19.0703 10.3887L19.0566 10.4141C18.2519 11.8221 17.3672 12.9956 16.4072 13.9326L12.498 10.0234C12.4981 10.0156 12.5 10.0078 12.5 10C12.5 9.33696 12.2364 8.70029 11.7676 8.23145C11.2988 7.7628 10.6629 7.50003 10 7.5C9.99189 7.5 9.98369 7.5009 9.97559 7.50098L6.52246 4.04786C7.60944 3.57286 8.76925 3.33301 10 3.33301Z" fill="#19191D"/>
<path d="M8.84375 7.78321C8.62042 7.89969 8.41385 8.0501 8.23242 8.23145C8.05083 8.41304 7.89979 8.62017 7.7832 8.84375L4.33789 5.39844C4.74172 5.06853 5.1573 4.77679 5.58594 4.52539L8.84375 7.78321Z" fill="#19191D"/>
<path d="M2.46973 2.46973C2.76262 2.17684 3.23738 2.17684 3.53027 2.46973L17.5303 16.4697C17.8232 16.7626 17.8232 17.2374 17.5303 17.5303C17.2374 17.8232 16.7626 17.8232 16.4697 17.5303L2.46973 3.53028C2.17683 3.23738 2.17683 2.76262 2.46973 2.46973Z" fill="#19191D"/>
</svg>
