<svg width="25" height="24" viewBox="0 0 25 24" fill="none" xmlns="http://www.w3.org/2000/svg">
<path d="M21.536 19.764L16.808 15.036C17.864 13.704 18.5 12.024 18.5 10.2C18.5 5.892 15.008 2.4 10.7 2.4C6.39199 2.4 2.89999 5.892 2.89999 10.2C2.89999 14.508 6.39199 18 10.7 18C12.524 18 14.204 17.364 15.536 16.308L20.264 21.036C20.444 21.216 20.672 21.3 20.9 21.3C21.128 21.3 21.356 21.216 21.536 21.036C21.884 20.688 21.884 20.112 21.536 19.764ZM10.7 16.2C7.38799 16.2 4.69999 13.512 4.69999 10.2C4.69999 6.888 7.38799 4.2 10.7 4.2C14.012 4.2 16.7 6.888 16.7 10.2C16.7 13.512 14.012 16.2 10.7 16.2Z" fill="#9696A0"/>
</svg>
